HIERARCHY
ROOT hip
{
  OFFSET 0 0 0
  CHANNELS 6 Xposition Yposition Zposition Zrotation Yrotation Xrotation
  JOINT abdomen
  {
    OFFSET 0 20.6881 -0.73152
    CHANNELS 3 Zrotation Xrotation Yrotation
    JOINT chest
    {
      OFFSET 0 11.7043 -0.48768
      CHANNELS 3 Zrotation Xrotation Yrotation
      JOINT neck
      {
        OFFSET 0 22.1894 -2.19456
        CHANNELS 3 Zrotation Xrotation Yrotation
        JOINT head
        {
          OFFSET -0.24384 7.07133 1.2192
          CHANNELS 3 Zrotation Xrotation Yrotation
          JOINT leftEye
          {
            OFFSET 4.14528 8.04674 8.04672
            CHANNELS 3 Zrotation Xrotation Yrotation
            End Site
            {
              OFFSET 1 0 0
            }
          }
          JOINT rightEye
          {
            OFFSET -3.6576 8.04674 8.04672
            CHANNELS 3 Zrotation Xrotation Yrotation
            End Site
            {
              OFFSET 1 0 0
            }
          }
        }
      }
      JOINT rCollar
      {
        OFFSET -2.68224 19.2634 -4.8768
        CHANNELS 3 Zrotation Xrotation Yrotation
        JOINT rShldr
        {
          OFFSET -8.77824 -1.95073 1.46304
          CHANNELS 3 Zrotation Xrotation Yrotation
          JOINT rForeArm
          {
            OFFSET -28.1742 -1.7115 0.48768
            CHANNELS 3 Zrotation Xrotation Yrotation
            JOINT rHand
            {
              OFFSET -22.5879 0.773209 7.07136
              CHANNELS 3 Zrotation Xrotation Yrotation
              JOINT rThumb1
              {
                OFFSET -1.2192 -0.487915 3.41376
                CHANNELS 3 Zrotation Xrotation Yrotation
                JOINT rThumb2
                {
                  OFFSET -3.37035 -0.52449 3.41376
                  CHANNELS 3 Zrotation Xrotation Yrotation
                  End Site
                  {
                    OFFSET -1.78271 -1.18214 1.43049
                  }
                }
              }
              JOINT rIndex1
              {
                OFFSET -7.75947 0.938293 5.60832
                CHANNELS 3 Zrotation Xrotation Yrotation
                JOINT rIndex2
                {
                  OFFSET -2.54057 -0.884171 1.56538
                  CHANNELS 3 Zrotation Xrotation Yrotation
                  End Site
                  {
                    OFFSET -1.62519 -0.234802 1.16502
                  }
                }
              }
              JOINT rMid1
              {
                OFFSET -8.24714 1.18213 3.41376
                CHANNELS 3 Zrotation Xrotation Yrotation
                JOINT rMid2
                {
                  OFFSET -3.10165 -0.590103 1.0647
                  CHANNELS 3 Zrotation Xrotation Yrotation
                  End Site
                  {
                    OFFSET -2.48547 -0.328903 0.83742
                  }
                }
              }
              JOINT rRing1
              {
                OFFSET -8.82822 0.546677 1.51678
                CHANNELS 3 Zrotation Xrotation Yrotation
                JOINT rRing2
                {
                  OFFSET -2.60934 -0.819778 -0.0198488
                  CHANNELS 3 Zrotation Xrotation Yrotation
                  End Site
                  {
                    OFFSET -2.33842 -0.294052 0.168128
                  }
                }
              }
              JOINT rPinky1
              {
                OFFSET -8.27202 -0.0477905 -0.4584
                CHANNELS 3 Zrotation Xrotation Yrotation
                JOINT rPinky2
                {
                  OFFSET -1.82734 -0.647385 -0.700984
                  CHANNELS 3 Zrotation Xrotation Yrotation
                  End Site
                  {
                    OFFSET -1.69225 -0.51767 -0.607171
                  }
                }
              }
            }
          }
        }
      }
      JOINT lCollar
      {
        OFFSET 2.68224 19.2634 -4.8768
        CHANNELS 3 Zrotation Xrotation Yrotation
        JOINT lShldr
        {
          OFFSET 8.77824 -1.95073 1.46304
          CHANNELS 3 Zrotation Xrotation Yrotation
          JOINT lForeArm
          {
            OFFSET 28.1742 -1.7115 0.48768
            CHANNELS 3 Zrotation Xrotation Yrotation
            JOINT lHand
            {
              OFFSET 22.5879 0.773209 7.07136
              CHANNELS 3 Zrotation Xrotation Yrotation
              JOINT lThumb1
              {
                OFFSET 1.2192 -0.487915 3.41376
                CHANNELS 3 Zrotation Xrotation Yrotation
                JOINT lThumb2
                {
                  OFFSET 3.37035 -0.52449 3.41376
                  CHANNELS 3 Zrotation Xrotation Yrotation
                  End Site
                  {
                    OFFSET 1.78271 -1.18214 1.43049
                  }
                }
              }
              JOINT lIndex1
              {
                OFFSET 7.75947 0.938293 5.60832
                CHANNELS 3 Zrotation Xrotation Yrotation
                JOINT lIndex2
                {
                  OFFSET 2.54057 -0.884171 1.56538
                  CHANNELS 3 Zrotation Xrotation Yrotation
                  End Site
                  {
                    OFFSET 1.62519 -0.234802 1.16502
                  }
                }
              }
              JOINT lMid1
              {
                OFFSET 8.24714 1.18213 3.41376
                CHANNELS 3 Zrotation Xrotation Yrotation
                JOINT lMid2
                {
                  OFFSET 3.10165 -0.590103 1.0647
                  CHANNELS 3 Zrotation Xrotation Yrotation
                  End Site
                  {
                    OFFSET 2.48547 -0.328903 0.83742
                  }
                }
              }
              JOINT lRing1
              {
                OFFSET 8.82822 0.546677 1.51678
                CHANNELS 3 Zrotation Xrotation Yrotation
                JOINT lRing2
                {
                  OFFSET 2.60934 -0.819778 -0.0198488
                  CHANNELS 3 Zrotation Xrotation Yrotation
                  End Site
                  {
                    OFFSET 2.33842 -0.294052 0.168128
                  }
                }
              }
              JOINT lPinky1
              {
                OFFSET 8.27202 -0.0477905 -0.4584
                CHANNELS 3 Zrotation Xrotation Yrotation
                JOINT lPinky2
                {
                  OFFSET 1.82734 -0.647385 -0.700984
                  CHANNELS 3 Zrotation Xrotation Yrotation
                  End Site
                  {
                    OFFSET 1.69225 -0.51767 -0.607171
                  }
                }
              }
            }
          }
        }
      }
    }
  }
  JOINT rButtock
  {
    OFFSET -8.77824 4.35084 1.2192
    CHANNELS 3 Zrotation Xrotation Yrotation
    JOINT rThigh
    {
      OFFSET 0 -1.70687 -2.19456
      CHANNELS 3 Zrotation Xrotation Yrotation
      JOINT rShin
      {
        OFFSET 0 -36.8199 0.73152
        CHANNELS 3 Zrotation Xrotation Yrotation
        JOINT rFoot
        {
          OFFSET 0.73152 -45.1104 -5.12064
          CHANNELS 3 Zrotation Xrotation Yrotation
          End Site
          {
            OFFSET -1.1221 -3.69964 12.103
          }
        }
      }
    }
  }
  JOINT lButtock
  {
    OFFSET 8.77824 4.35084 1.2192
    CHANNELS 3 Zrotation Xrotation Yrotation
    JOINT lThigh
    {
      OFFSET 0 -1.70687 -2.19456
      CHANNELS 3 Zrotation Xrotation Yrotation
      JOINT lShin
      {
        OFFSET 0 -36.8199 0.73152
        CHANNELS 3 Zrotation Xrotation Yrotation
        JOINT lFoot
        {
          OFFSET -0.73152 -45.1104 -5.12064
          CHANNELS 3 Zrotation Xrotation Yrotation
          End Site
          {
            OFFSET 1.1221 -3.69964 12.103
          }
        }
      }
    }
  }
}
MOTION
Frames:	6
Frame Time:	0.03333
0.0 0.0 0.0 0.0 0.0 0.0 0.0 0.0 0.0 0.0 0.0 0.0 0.0 0.0 0.0 0.0 0.0 0.0 0.0 0.0 0.0 0.0 0.0 0.0 0.0 0.0 0.0 0.0 0.0 0.0 0.0 0.0 0.0 0.0 0.0 0.0 0.0 0.0 0.0 0.0 0.0 0.0 0.0 0.0 0.0 0.0 0.0 0.0 0.0 0.0 0.0 0.0 0.0 0.0 0.0 0.0 0.0 0.0 0.0 0.0 0.0 0.0 0.0 0.0 0.0 0.0 0.0 0.0 0.0 0.0 0.0 0.0 0.0 0.0 0.0 0.0 0.0 0.0 0.0 0.0 0.0 0.0 0.0 0.0 0.0 0.0 0.0 0.0 0.0 0.0 0.0 0.0 0.0 0.0 0.0 0.0 0.0 0.0 0.0 0.0 0.0 0.0 0.0 0.0 0.0 0.0 0.0 0.0 0.0 0.0 0.0 0.0 0.0 0.0 0.0 0.0 0.0 0.0 0.0 0.0 0.0 0.0 0.0 0.0 0.0 0.0 0.0 0.0 0.0 0.0 0.0 0.0
0.0774 62.6504 0.0415 179.352619 -63.204976 179.593792 -1.746578 3.444469 18.186286 9.808699 2.66948 -58.486045 -8.591412 -7.392356 -102.359914 -29.899511 -23.39819 -49.658641 -124.286537 -5.752678 -10.861298 -54.29666 8.767162 -17.004474 -80.946239 -12.855602 165.318511 10.770007 -25.931911 3.472104 -169.970083 65.397696 -17.955471 15.215374 -30.411341 -68.691653 -176.613142 -3.840318 53.738106 2.274733 -2.019485 -165.990647 -31.217597 52.997532 -35.698056 -0.865372 -14.984416 -132.783712 15.086208 2.420424 -103.063194 -60.792803 63.213261 73.065709 75.675823 10.384587 -72.879636 37.876816 64.617542 -30.578453 -22.403983 9.959346 -82.891268 -22.946683 -62.04937 -20.830395 75.888347 -0.826498 -156.139984 156.771121 21.599346 -164.048326 177.920475 -17.359591 22.309497 -27.078527 -34.605761 19.277099 -1.288524 -11.607524 -2.606699 95.595207 46.046694 11.614399 26.10744 -49.637546 -5.913789 -35.194812 67.020566 -25.581734 -13.801583 19.589128 -8.690784 178.503161 -55.225128 -11.218295 93.307595 61.691105 87.006175 46.84973 -53.465043 75.131319 -24.456564 1.342874 101.167675 139.028766 2.148796 140.665093 -49.456001 15.388756 -100.819155 1.360824 49.568489 178.960032 -6.139607 -0.43601 -87.149717 -22.247637 -64.1667 160.062797 -58.670785 -0.286248 -90.576334 -2.581316 57.424855 177.731169 -2.418731 5.023045 -159.12487 -69.306856 -22.486366 98.800298
-0.6146 66.6974 1.9371 -13.836902 65.178379 -17.905196 3.644029 16.928891 171.236926 -0.977316 6.737997 -162.371108 -8.271226 11.797474 -49.651254 36.235009 -20.226894 20.209612 49.391169 -6.552646 -14.191911 18.858995 9.988662 55.506026 2.644893 -35.174215 -23.533783 -1.778958 44.704422 46.379658 122.721227 77.939731 103.43413 -172.869672 24.351479 138.411414 -177.56822 -13.96134 115.657735 -145.347758 16.890653 84.09442 80.542831 -69.845457 29.505986 -179.738137 -10.202144 87.539583 160.047532 -81.321399 148.415743 -145.682047 -45.371585 157.991348 -88.887645 18.80368 90.15766 35.69867 11.183337 5.169945 -141.24883 -29.517989 -161.001276 -7.114814 1.009042 133.979233 5.470433 29.306386 -35.313311 -9.636724 50.856341 -56.152512 17.078039 -49.684783 -77.257221 -7.361548 -1.470983 27.219239 0.04618 -43.595872 -10.68934 137.405685 -14.034116 -130.995595 67.919168 -5.422163 -1.272419 -106.512036 28.51889 -43.492476 -173.867033 -60.265684 160.133035 151.712542 53.678315 135.611067 137.383836 81.809094 -139.651582 33.043881 -22.572199 14.870632 20.572933 10.893047 -94.59617 -100.60351 -19.274698 26.56577 28.267679 8.170353 39.097432 -85.590719 9.029961 -132.813772 -65.479536 7.775582 -62.621039 163.493318 29.092835 -160.510933 30.213259 0.565605 23.870065 -1.099201 -14.088398 0.307595 7.282004 43.824003 -52.889237 -140.283604 -65.955064 -26.868389
-0.49160000000000004 71.4337 3.2466000000000004 -7.403474 62.152477 -10.79663 -3.10505 6.498535 -146.311354 -3.145546 6.736424 144.034667 -1.19404 37.226111 109.799435 -50.853863 20.126727 -136.671091 102.951478 0.766525 -0.962808 -46.935735 -19.084821 42.333363 178.27763 -74.666854 156.540664 54.084613 -23.452915 -0.704049 -29.462595 78.44323 110.932028 5.111014 38.219194 -7.427021 -134.464929 36.037879 116.564383 162.664021 69.097271 -163.896462 -156.417664 -10.010548 120.2518 18.544003 36.467557 95.469662 -144.55626 -47.388183 -156.08813 29.562934 53.826392 3.209635 14.608442 22.222359 -44.110703 -63.616428 -12.701172 33.238435 4.748542 -15.273016 11.751242 178.162865 11.363552 -177.066247 -20.881084 -6.554755 -15.059085 -66.508614 41.053106 21.585183 -175.049764 15.889718 -52.059059 147.323106 29.387527 -113.768632 1.888447 -32.038741 6.540512 -21.356826 -44.174469 6.050039 -163.200384 -59.637014 -104.278646 29.175803 -40.445179 143.157806 159.390457 45.125534 177.816897 4.222564 -3.267682 57.822255 83.089084 64.225764 -81.215532 161.706529 20.476351 157.607052 97.260518 50.899422 -80.250079 -20.270145 27.608697 -114.862599 -97.764968 45.07764 -35.38369 87.742853 -13.133632 -8.607831 -29.391301 51.015909 179.692439 -108.371042 -24.489254 145.03108 -91.383596 13.961294 -54.151047 131.123475 34.106261 -117.505994 -49.420264 -19.017328 64.618911 98.276708 23.83562 -16.826527
-1.5705 72.3069 4.5799 -1.455326 49.621681 -6.250125 -5.048471 10.418714 -31.667594 5.047037 -3.15646 51.276961 -1.49649 26.592528 -71.850003 32.262194 -19.364088 20.276705 105.597621 5.660503 -7.452661 -45.044154 0.203597 -0.490989 2.298906 12.456694 -14.308932 -110.729121 35.925045 78.443986 -79.280953 4.712284 -99.537774 40.226133 -46.607762 34.219071 16.765303 35.892165 -24.272061 123.354848 -44.749099 -161.934738 -85.683756 32.026709 63.837979 144.855241 74.829107 -58.713304 -20.152998 58.878881 15.454897 -112.194707 59.212789 83.203945 -103.557126 -46.724469 -135.735909 27.470934 9.29036 20.671929 -86.12844 56.988895 -164.400127 48.157068 68.845543 134.646216 108.372286 28.317754 -118.058887 102.967691 18.303909 -98.923243 175.087028 26.056072 82.29395 11.358493 -39.208457 26.851435 -163.364837 -24.539735 -92.293513 89.936359 20.939479 -38.090903 -28.695929 -20.004922 0.420943 -177.657535 -18.877581 -45.282613 159.950268 -2.956868 -156.556183 132.993802 -48.136355 -178.393877 139.497737 14.875206 -166.151882 102.621579 20.583615 -169.182601 69.274058 11.93103 -11.45233 32.202231 37.49216 176.931728 82.069747 62.940303 37.571543 -149.335199 32.927599 -67.387452 -9.309589 51.929835 127.407926 12.823477 26.809627 -95.605936 -113.278603 63.880495 -63.832966 -167.51218 60.364316 166.010169 -14.119237 -55.460539 92.002711 40.464803 -52.738301 104.938456
-3.8454 69.37689999999999 6.1364 -0.908332 44.572611 -4.802183 -3.252411 4.211024 -134.372485 -0.871743 -2.851451 155.385893 17.073631 3.283014 43.151831 -29.370267 8.947847 -97.40777 39.71401 10.911169 29.626015 4.612066 -1.069667 -26.10239 0.794491 -21.174304 -24.340732 -87.742446 15.158288 84.759898 145.339598 -54.457201 -124.385934 -5.759718 59.842902 -4.80178 -18.867374 49.614822 -7.449031 -102.137666 -32.953041 -34.3216 45.663381 -50.196648 17.156374 -93.609321 -84.13577 -77.531228 -99.098518 51.553219 102.588855 -173.171324 58.628992 -168.048329 -129.573348 6.395404 175.136759 24.094888 27.51641 4.720139 32.231247 -19.640396 -19.677882 -3.852581 -54.051245 128.885232 -19.122011 -18.10097 -26.475628 39.408704 -49.083653 94.491068 145.688533 52.786814 101.192119 12.47683 -58.865518 23.155733 -0.82882 -2.083964 16.96596 -12.542207 -37.949223 -3.80842 130.08771 3.82047 -118.271809 -32.918986 44.988232 34.770305 178.09875 -37.626451 -137.608022 171.138423 27.669721 -137.831308 -12.739753 0.584584 -1.485743 28.986108 -19.360747 26.418017 -46.303166 21.979369 58.351346 162.612938 20.845227 -112.600651 11.076896 15.47216 14.023141 -72.238699 -34.533521 -179.836023 -59.940929 -17.59185 -120.237078 -130.135513 -5.306566 144.401273 100.576586 76.094864 72.566785 -108.533571 61.685711 -173.548852 -65.108101 -24.628886 -136.946768 -39.575568 43.271713 -86.105713
